<?xml version="1.0" encoding="UTF-8" standalone="no"?>
<!-- Created with Inkscape (http://www.inkscape.org/) -->

<svg
   width="163.33334"
   height="185.37036"
   viewBox="0 0 43.21528 49.045907"
   version="1.1"
   id="svg880"
   inkscape:version="1.2.2 (732a01da63, 2022-12-09)"
   xml:space="preserve"
   sodipodi:docname="Skydiving.svg"
   xmlns:inkscape="http://www.inkscape.org/namespaces/inkscape"
   xmlns:sodipodi="http://sodipodi.sourceforge.net/DTD/sodipodi-0.dtd"
   xmlns="http://www.w3.org/2000/svg"
   xmlns:svg="http://www.w3.org/2000/svg"><sodipodi:namedview
     id="namedview882"
     pagecolor="#ffffff"
     bordercolor="#000000"
     borderopacity="0.25"
     inkscape:showpageshadow="2"
     inkscape:pageopacity="0.0"
     inkscape:pagecheckerboard="0"
     inkscape:deskcolor="#d1d1d1"
     inkscape:document-units="mm"
     showgrid="false"
     inkscape:zoom="1.5428571"
     inkscape:cx="37.26852"
     inkscape:cy="98.518521"
     inkscape:window-width="958"
     inkscape:window-height="1000"
     inkscape:window-x="0"
     inkscape:window-y="0"
     inkscape:window-maximized="0"
     inkscape:current-layer="layer1" /><defs
     id="defs877"><marker
       style="overflow:visible"
       id="TriangleStart"
       refX="0"
       refY="0"
       orient="auto-start-reverse"
       inkscape:stockid="TriangleStart"
       markerWidth="5.3244081"
       markerHeight="6.155385"
       viewBox="0 0 5.3244081 6.1553851"
       inkscape:isstock="true"
       inkscape:collect="always"
       preserveAspectRatio="xMidYMid"><path
         transform="scale(0.5)"
         style="fill:context-stroke;fill-rule:evenodd;stroke:context-stroke;stroke-width:1pt"
         d="M 5.77,0 -2.88,5 V -5 Z"
         id="path135" /></marker><marker
       style="overflow:visible"
       id="TriangleStart-7"
       refX="0"
       refY="0"
       orient="auto-start-reverse"
       inkscape:stockid="TriangleStart"
       markerWidth="5.3244081"
       markerHeight="6.155385"
       viewBox="0 0 5.3244081 6.1553851"
       inkscape:isstock="true"
       inkscape:collect="always"
       preserveAspectRatio="xMidYMid"><path
         transform="scale(0.5)"
         style="fill:context-stroke;fill-rule:evenodd;stroke:context-stroke;stroke-width:1pt"
         d="M 5.77,0 -2.88,5 V -5 Z"
         id="path135-3" /></marker></defs><g
     inkscape:label="Layer 1"
     inkscape:groupmode="layer"
     id="layer1"
     transform="translate(-74.402351,-22.486866)"><rect
       style="fill:#ffffff;fill-opacity:0;stroke:none;stroke-width:0.298462;stroke-dasharray:none;stop-color:#000000"
       id="rect50841"
       width="43.215279"
       height="49.04591"
       x="74.402351"
       y="22.486866" /><g
       style="fill:#000000"
       id="g48948"
       transform="matrix(0.03258268,0,0,0.03258268,77.48916,36.727343)"><g
         id="g48933">
	<g
   id="g48931">
		<path
   d="m 46.56,367.44 c 25.857,0 46.818,-20.961 46.818,-46.789 0,-25.685 -20.951,-46.646 -46.818,-46.646 -25.685,0 -46.56,20.952 -46.56,46.646 0,25.828 20.884,46.789 46.56,46.789 z"
   id="path48919" />
		<path
   d="m 85.565,376.114 c -3.71,6.923 -1.052,15.472 5.919,19.087 l 167.248,86.817 14.898,9.792 c 5.077,3.338 10.968,5.059 16.916,5.059 2.726,0 5.46,-0.363 8.147,-1.1 L 494.59,442.047 c 16.409,-4.495 26.067,-21.449 21.572,-37.849 -4.513,-16.409 -21.458,-26.058 -37.857,-21.563 l -177.05,48.549 0.345,-1.463 -51.82,-30.304 19.966,-39.933 c 3.51,-7.02 0.612,-15.492 -6.444,-18.905 l -94.009,-45.508 c -9.505,-4.6 -22.883,-1.636 -26.421,8.31 -1.138,3.193 -2.008,6.502 -2.735,9.858 L 133.3,211.848 c -0.794,-11.752 -10.997,-20.655 -22.721,-19.842 -11.752,0.793 -20.636,10.958 -19.842,22.711 l 9.084,134.716 z"
   id="path48921" />
		<path
   d="m 377.642,369.668 c 5.288,0 9.562,-4.284 9.562,-9.562 V 214.278 c 0,-5.278 -4.274,-9.562 -9.562,-9.562 -5.288,0 -9.562,4.284 -9.562,9.562 v 145.828 c -10e-4,5.278 4.283,9.562 9.562,9.562 z"
   id="path48923" />
		<path
   d="m 344.078,309.903 c 5.288,0 9.562,-4.284 9.562,-9.562 V 154.512 c 0,-5.278 -4.274,-9.562 -9.562,-9.562 -5.288,0 -9.562,4.284 -9.562,9.562 V 300.34 c 0,5.279 4.283,9.563 9.562,9.563 z"
   id="path48925" />
		<path
   d="m 175.969,245.117 c 5.288,0 9.562,-4.284 9.562,-9.562 V 89.726 c 0,-5.278 -4.274,-9.562 -9.562,-9.562 -5.288,0 -9.562,4.284 -9.562,9.562 v 145.828 c -0.001,5.279 4.283,9.563 9.562,9.563 z"
   id="path48927" />
		<path
   d="m 209.533,185.351 c 5.288,0 9.562,-4.284 9.562,-9.562 V 29.96 c 0,-5.278 -4.274,-9.562 -9.562,-9.562 -5.288,0 -9.562,4.284 -9.562,9.562 v 145.828 c 0,5.279 4.274,9.563 9.562,9.563 z"
   id="path48929" />
	</g>
</g></g><path
       style="fill:none;stroke:#000000;stroke-width:0.414138;stroke-linecap:butt;stroke-linejoin:miter;stroke-dasharray:none;stroke-opacity:1;marker-end:url(#TriangleStart)"
       d="m 84.627862,54.810051 v 6.189195"
       id="path48950" /><path
       style="fill:none;stroke:#000000;stroke-width:0.340782;stroke-linecap:butt;stroke-linejoin:miter;stroke-dasharray:none;stroke-opacity:1;marker-end:url(#TriangleStart-7)"
       d="M 84.627862,34.659479 V 30.468654"
       id="path48950-4" /><text
       xml:space="preserve"
       style="font-style:normal;font-weight:normal;font-size:8.46667px;line-height:1.25;font-family:sans-serif;letter-spacing:0px;word-spacing:0px;fill:#000000;fill-opacity:1;stroke:none;stroke-width:0.264583"
       x="89.491623"
       y="65.851852"
       id="text50558"><tspan
         sodipodi:role="line"
         id="tspan50556"
         style="font-size:8.46667px;stroke-width:0.264583"
         x="89.491623"
         y="65.851852">F<tspan
   style="font-size:65%;baseline-shift:sub"
   id="tspan50596">gravity</tspan></tspan></text><text
       xml:space="preserve"
       style="font-style:normal;font-weight:normal;font-size:8.46667px;line-height:1.25;font-family:sans-serif;letter-spacing:0px;word-spacing:0px;fill:#000000;fill-opacity:1;stroke:none;stroke-width:0.264583"
       x="89.491623"
       y="30.418447"
       id="text50558-0"><tspan
         sodipodi:role="line"
         id="tspan50556-6"
         style="font-size:8.46667px;stroke-width:0.264583"
         x="89.491623"
         y="30.418447">F<tspan
   style="font-size:65%;baseline-shift:sub"
   id="tspan50594">drag</tspan></tspan></text></g></svg>
